<svg id="Layer_1" data-name="Layer 1" xmlns="http://www.w3.org/2000/svg" viewBox="0 0 60 60"><defs><style>.cls-1{fill:#556270;}.cls-2{fill:#fff;}</style></defs><title>logo</title><circle class="cls-1" cx="30" cy="30" r="30"/><path class="cls-2" d="M19.89,40.29,10.58,17.22h-.14c.09,1.41.14,2.86.14,4.34V40.29H8.9v-25h2.7l8.86,22h.1l8.85-22H32v25H30.28V21.35c0-1.32.07-2.69.21-4.1h-.14L21,40.29Z"/><path class="cls-2" d="M52.89,33.85a6,6,0,0,1-2.3,4.95,9.52,9.52,0,0,1-6.11,1.83,19.17,19.17,0,0,1-7-1V37.88A17.86,17.86,0,0,0,44.35,39a7.74,7.74,0,0,0,4.88-1.41,4.47,4.47,0,0,0,1.8-3.7,4.29,4.29,0,0,0-.6-2.35,5.55,5.55,0,0,0-2-1.7,24.17,24.17,0,0,0-4-1.65,13.59,13.59,0,0,1-5.29-2.85,5.64,5.64,0,0,1-1.46-4.08A5.62,5.62,0,0,1,40,16.71a8.74,8.74,0,0,1,5.65-1.77,16.56,16.56,0,0,1,6.62,1.34l-.64,1.5a15.49,15.49,0,0,0-5.94-1.3,7,7,0,0,0-4.41,1.28,4.18,4.18,0,0,0-1.64,3.49,4.52,4.52,0,0,0,.5,2.27,4.62,4.62,0,0,0,1.65,1.6,22.51,22.51,0,0,0,3.93,1.7,21.11,21.11,0,0,1,4.39,2,6.29,6.29,0,0,1,2.15,2.15A5.89,5.89,0,0,1,52.89,33.85Z"/></svg>